<?xml version="1.0" standalone="no"?>
<!DOCTYPE svg PUBLIC "-//W3C//DTD SVG 20010904//EN"
 "http://www.w3.org/TR/2001/REC-SVG-20010904/DTD/svg10.dtd">
<svg version="1.0" xmlns="http://www.w3.org/2000/svg"
 width="79.6pt" height="125.6pt" viewBox="0 0 398.000000 628.000000"
 preserveAspectRatio="xMidYMid meet">

<g transform="translate(0.000000,628.000000) scale(0.100000,-0.100000)"
fill="#000000" stroke="none">
<path d="M1202 5369 c-68 -11 -142 -49 -199 -102 -54 -49 -73 -89 -73 -151 0
-36 5 -48 26 -65 15 -12 36 -21 48 -21 19 0 21 6 21 68 1 74 14 108 65 160 35
35 50 40 50 17 0 -12 -110 -536 -127 -602 -5 -22 -3 -23 69 -23 l73 0 23 113
c13 61 30 142 39 180 l15 67 64 0 c49 0 64 -3 64 -14 0 -8 -16 -87 -35 -176
-19 -89 -35 -163 -35 -166 0 -3 33 -4 72 -2 l73 3 75 355 76 355 -69 3 c-38 2
-71 1 -73 -1 -2 -2 -16 -64 -32 -138 l-28 -134 -68 -3 -68 -3 6 33 c4 18 17
81 30 140 28 129 31 126 -82 107z"/>
<path d="M2085 5318 c-33 -5 -61 -10 -62 -11 0 -1 -24 -110 -53 -242 -56 -264
-61 -274 -145 -315 -82 -40 -135 -18 -135 56 0 40 2 44 24 44 128 0 250 187
171 265 -20 21 -34 25 -82 25 -145 0 -246 -123 -259 -315 -9 -122 37 -177 147
-176 76 0 125 19 178 66 39 35 51 36 51 3 0 -10 11 -30 25 -43 20 -21 34 -25
79 -25 45 0 62 6 105 34 28 19 51 30 51 25 0 -6 11 -21 25 -34 35 -36 117 -35
171 1 21 15 42 32 46 38 5 7 13 3 23 -12 36 -50 136 -68 208 -38 66 27 132
130 144 225 4 33 15 56 38 81 29 31 65 89 65 105 0 16 -35 1 -57 -25 -29 -35
-38 -33 -47 10 -3 17 -17 42 -30 55 -21 21 -35 25 -86 25 -131 0 -220 -92
-250 -260 -7 -36 -14 -75 -16 -87 -8 -42 -84 -64 -97 -29 -3 7 21 134 52 282
32 148 55 272 52 275 -3 4 -36 2 -74 -3 -56 -9 -68 -14 -72 -32 -3 -11 -25
-118 -50 -236 -25 -118 -54 -231 -63 -250 -30 -62 -102 -77 -102 -20 0 15 25
143 55 285 30 141 55 259 55 261 0 5 -10 4 -85 -8z m-257 -266 c4 -41 -29
-100 -72 -130 -44 -30 -58 -29 -50 6 21 81 79 169 107 159 7 -2 13 -18 15 -35z
m886 6 c8 -13 8 -23 -2 -38 -14 -23 -16 -62 -3 -75 13 -13 -4 -89 -33 -145
-26 -52 -64 -72 -92 -50 -38 32 4 230 63 301 27 32 49 34 67 7z"/>
<path d="M2450 3235 l0 -365 45 0 45 0 0 365 0 365 -45 0 -45 0 0 -365z"/>
<path d="M2997 3594 c-4 -4 -7 -63 -7 -131 l0 -124 -31 23 c-25 19 -43 23
-104 23 -67 0 -76 -3 -111 -31 -21 -17 -50 -53 -63 -80 -21 -42 -25 -63 -26
-144 0 -85 3 -101 28 -153 35 -71 86 -108 156 -115 45 -4 73 4 154 46 4 2 7
-6 7 -18 0 -19 5 -21 43 -18 l42 3 0 360 0 360 -40 3 c-23 2 -44 0 -48 -4z
m-57 -299 c16 -8 34 -24 40 -34 5 -11 10 -73 10 -138 0 -119 0 -119 -29 -147
-62 -59 -158 -40 -196 40 -21 45 -24 151 -6 207 25 76 109 109 181 72z"/>
<path d="M700 3542 c0 -10 35 -165 79 -343 l79 -324 44 -3 44 -3 74 256 c41
140 77 255 80 255 3 0 37 -114 76 -252 l70 -253 45 -3 45 -3 78 323 c42 178
80 333 83 346 5 22 3 23 -43 20 l-49 -3 -51 -225 c-28 -124 -55 -243 -59 -265
-8 -42 -7 -45 -146 458 -10 37 -11 38 -51 35 l-41 -3 -73 -259 c-40 -142 -75
-261 -78 -264 -3 -3 -6 6 -6 20 0 13 -25 131 -55 262 -30 130 -55 239 -55 241
0 3 -20 5 -45 5 -37 0 -45 -3 -45 -18z"/>
<path d="M1685 3371 c-87 -40 -127 -108 -133 -224 -5 -100 10 -156 59 -211
115 -131 328 -84 384 84 36 108 9 245 -62 312 -61 58 -169 75 -248 39z m180
-94 c79 -79 68 -264 -19 -319 -39 -24 -116 -20 -148 8 -80 71 -76 257 7 322
20 16 42 22 77 22 43 0 55 -5 83 -33z"/>
<path d="M2270 3383 c-8 -3 -25 -15 -37 -26 l-23 -20 0 21 c0 19 -5 22 -45 22
l-45 0 0 -255 0 -255 45 0 45 0 0 184 c0 179 1 186 23 212 19 22 34 28 81 32
l57 5 -3 41 c-3 40 -4 41 -43 43 -22 1 -47 -1 -55 -4z"/>
<path d="M747 1664 c-7 -7 -2 -40 23 -144 10 -41 26 -137 35 -213 16 -144 25
-177 51 -177 24 0 27 27 15 129 -31 257 -87 441 -124 405z"/>
<path d="M1916 1568 c-32 -46 -10 -220 38 -303 40 -67 69 -88 129 -93 52 -4
55 -3 106 42 29 26 58 45 64 43 7 -2 18 -23 25 -48 8 -24 15 -50 18 -56 4 -15
50 -17 59 -4 3 5 -8 47 -24 93 -20 57 -31 111 -35 170 -5 95 -18 131 -44 126
-14 -3 -18 -20 -22 -99 -5 -101 -7 -105 -69 -171 -41 -44 -74 -49 -115 -17
-53 42 -87 140 -90 258 -1 80 -13 98 -40 59z"/>
<path d="M1495 1556 c-46 -20 -69 -52 -68 -92 2 -79 61 -115 213 -134 124 -14
160 -38 146 -93 -8 -34 -46 -47 -135 -47 -71 0 -86 4 -150 37 -55 28 -74 34
-83 25 -18 -18 19 -62 74 -90 57 -29 200 -41 267 -22 94 25 132 112 77 177
-29 35 -70 48 -189 63 -106 13 -131 22 -152 54 -19 28 -8 61 22 70 55 16 92
17 126 2 33 -13 37 -19 37 -50 0 -37 15 -47 38 -24 21 21 14 66 -17 100 -27
30 -34 33 -102 35 -47 2 -85 -2 -104 -11z"/>
<path d="M2810 1514 c-25 -14 -60 -39 -78 -57 l-32 -31 -40 39 c-36 36 -46 39
-104 43 -47 3 -70 0 -89 -12 -17 -11 -27 -14 -32 -7 -3 6 -15 11 -26 11 -19 0
-20 -5 -13 -152 8 -175 14 -201 47 -196 21 3 22 6 19 105 -4 105 2 127 41 171
14 15 32 22 58 22 50 0 79 -35 109 -131 32 -102 47 -129 71 -129 29 0 33 24
15 79 -9 28 -16 57 -16 66 0 55 87 135 147 135 74 0 117 -95 112 -243 -4 -86
-3 -92 16 -92 30 0 45 42 45 127 0 86 -18 153 -58 211 -48 71 -114 85 -192 41z"/>
<path d="M1059 1456 c-95 -25 -149 -95 -149 -194 0 -114 87 -444 122 -466 37
-22 38 5 8 188 -17 99 -34 218 -38 265 -8 77 -7 86 12 108 13 14 46 29 87 40
57 15 73 15 109 4 91 -27 134 -118 74 -158 -41 -26 -123 -29 -170 -5 -21 11
-50 22 -64 23 -22 4 -25 1 -22 -21 8 -56 60 -80 173 -80 117 0 171 39 171 124
0 138 -144 218 -313 172z"/>
</g>
</svg>
