<?xml version="1.0" encoding="UTF-8"?>
<!DOCTYPE svg PUBLIC "-//W3C//DTD SVG 1.1//EN" "http://www.w3.org/Graphics/SVG/1.1/DTD/svg11.dtd">
<svg xmlns="http://www.w3.org/2000/svg" xmlns:xlink="http://www.w3.org/1999/xlink" viewBox="0 0 190 120" width="190" height="120" style="background-color: #fff"><style>text { font: 12px sans-serif }rect { fill: none }ellipse { fill: none }</style><g><rect style="fill: white;" x="30" y="30" width="0" height="30"></rect><rect style="fill: lightblue;" x="30" y="30" width="30" height="30"></rect><rect style="fill: white;" x="60" y="30" width="20" height="30"></rect><rect style="fill: lightblue;" x="80" y="30" width="30" height="30"></rect><rect style="fill: white;" x="110" y="30" width="20" height="30"></rect><rect style="fill: lightblue;" x="130" y="30" width="30" height="30"></rect><rect style="fill: lightblue;" x="30" y="60" width="0" height="30"></rect><rect style="fill: white;" x="30" y="60" width="30" height="30"></rect><rect style="fill: lightblue;" x="60" y="60" width="20" height="30"></rect><rect style="fill: white;" x="80" y="60" width="30" height="30"></rect><rect style="fill: lightblue;" x="110" y="60" width="20" height="30"></rect><rect style="fill: white;" x="130" y="60" width="30" height="30"></rect></g><g><ellipse cx="45" cy="45" rx="15" ry="15" stroke="black"></ellipse><ellipse cx="95" cy="45" rx="15" ry="15" stroke="black"></ellipse><ellipse cx="145" cy="45" rx="15" ry="15" stroke="black"></ellipse><ellipse cx="45" cy="75" rx="15" ry="15" stroke="black"></ellipse><ellipse cx="95" cy="75" rx="15" ry="15" stroke="black"></ellipse><ellipse cx="145" cy="75" rx="15" ry="15" stroke="black"></ellipse></g></svg>