<?xml version="1.0" encoding="UTF-8"?>
<!DOCTYPE svg PUBLIC "-//W3C//DTD SVG 1.1//EN" "http://www.w3.org/Graphics/SVG/1.1/DTD/svg11.dtd">
<svg xmlns="http://www.w3.org/2000/svg" xmlns:xlink="http://www.w3.org/1999/xlink" viewBox="0 0 740 470" width="740" height="470" style="background-color: #fff"><style>text { font: 12px sans-serif }rect { fill: none }ellipse { fill: none }.pluginRect { fill: moccasin }.textRect { fill: lavender }.diagramRect { fill: mintcream }.t1 { font-style: italic }.tPluginCode { text-anchor: start }</style><g><g transform="translate(30 30)"><g><rect x="0" y="0" width="100" height="50" stroke-width="1" stroke="black" class="pluginRect"></rect></g><g><text x="50" y="25" dominant-baseline="middle" text-anchor="middle"><tspan x="50" dy="0em">Parser</tspan></text></g></g><g transform="translate(270 30)"><g><rect x="0" y="0" width="100" height="50" stroke-width="1" stroke="black" class="textRect"></rect></g><g><text x="50" y="25" dominant-baseline="middle" text-anchor="middle"><tspan x="50" dy="0em">Element</tspan></text></g></g><g transform="translate(150 180)"><g><rect x="0" y="0" width="100" height="50" stroke-width="1" stroke="black" class="pluginRect"></rect></g><g><text x="50" y="25" dominant-baseline="middle" text-anchor="middle"><tspan x="50" dy="-0.6em">Layout</tspan><tspan x="50" dy="1.2em">Producer</tspan></text></g></g><g transform="translate(390 180)"><g><rect x="0" y="0" width="100" height="50" stroke-width="1" stroke="black" class="pluginRect"></rect></g><g><text x="50" y="25" dominant-baseline="middle" text-anchor="middle"><tspan x="50" dy="0em">Renderer</tspan></text></g></g><g transform="translate(610 180)"><g><rect x="0" y="0" width="100" height="50" stroke-width="1" stroke="black" class="textRect"></rect></g><g><text x="50" y="25" dominant-baseline="middle" text-anchor="middle"><tspan x="50" dy="-0.6em">Finished</tspan><tspan x="50" dy="1.2em">Element</tspan></text></g></g><g transform="translate(47.5 290)"><g><rect x="0" y="27.5" width="15" height="15" stroke-width="1" stroke="black" class="pluginRect"></rect><text x="25" y="35" dominant-baseline="middle" text-anchor="middle" class="tPluginCode"><tspan x="25" dy="0em">Plugin Code</tspan></text><rect x="0" y="57.5" width="15" height="15" stroke-width="1" stroke="black" class="textRect"></rect><text x="25" y="65" dominant-baseline="middle" text-anchor="middle" class="tPluginCode"><tspan x="25" dy="0em">Plugin Artifact</tspan></text></g></g><g transform="translate(610 305)"><g><rect x="0" y="0" width="100" height="50" stroke-width="1" stroke="black" class="diagramRect"></rect></g><g><text x="50" y="25" dominant-baseline="middle" text-anchor="middle"><tspan x="50" dy="0em">Diagram</tspan></text></g></g><g transform="translate(270 390)"><g><rect x="0" y="0" width="100" height="50" stroke-width="1" stroke="black" class="textRect"></rect></g><g><text x="50" y="25" dominant-baseline="middle" text-anchor="middle"><tspan x="50" dy="-0.6em">Element Size</tspan><tspan x="50" dy="1.2em">&amp; Positions</tspan></text></g></g></g><g transform="rotate(0 200 55)"><g transform="translate(140 50)"><g><line x1="0" y1="5" x2="105" y2="5" stroke="black" stroke-width="1" ></line><polygon points="120,5 105,0 105,10"></polygon></g><g transform="translate(2.5 15) rotate(0 50 -24.5) translate(-2.5 -15)"><text x="52.5" y="-9.5" dominant-baseline="middle" text-anchor="middle"><tspan x="52.5" dy="0em">Creates</tspan></text></g></g></g><g transform="rotate(140.19442890773482 260 130)"><g transform="translate(191.89750324093345 122.25)"><g><line x1="0" y1="5" x2="121.20499351813311" y2="5" stroke="black" stroke-width="1" ></line><polygon points="136.2049935181331,5 121.20499351813311,0 121.20499351813311,10"></polygon></g><g transform="translate(2.5 15) rotate(-140.19442890773482 68.10249675906655 15.5) translate(-2.5 -15)"><text x="70.60249675906655" y="30.5" dominant-baseline="middle" text-anchor="middle"><tspan x="70.60249675906655" dy="-0.6em">Used</tspan><tspan x="70.60249675906655" dy="1.2em">By</tspan></text></g></g></g><g transform="rotate(39.472459848343824 380.5 131)"><g transform="translate(313.42049559059166 126)"><g><line x1="0" y1="5" x2="119.15900881881669" y2="5" stroke="black" stroke-width="1" ></line><polygon points="134.1590088188167,5 119.15900881881669,0 119.15900881881669,10"></polygon></g><g transform="translate(2.5 15) rotate(-39.472459848343824 72.07950440940834 -34.5) translate(-2.5 -15)"><text x="74.57950440940834" y="-19.5" dominant-baseline="middle" text-anchor="middle"><tspan x="74.57950440940834" dy="-0.6em">Used</tspan><tspan x="74.57950440940834" dy="1.2em">By</tspan></text></g></g></g><g transform="rotate(53.13010235415598 260 310)"><g transform="translate(170 305)"><g><line x1="0" y1="5" x2="165" y2="5" stroke="black" stroke-width="1" ></line><polygon points="180,5 165,0 165,10"></polygon></g><g transform="translate(2.5 15) rotate(-53.13010235415598 80 -34.5) translate(-2.5 -15)"><text x="82.5" y="-19.5" dominant-baseline="middle" text-anchor="middle"><tspan x="82.5" dy="0em">Creates</tspan></text></g></g></g><g transform="rotate(-53.13010235415598 380 310)"><g transform="translate(290 305)"><g><line x1="0" y1="5" x2="165" y2="5" stroke="black" stroke-width="1" ></line><polygon points="180,5 165,0 165,10"></polygon></g><g transform="translate(2.5 15) rotate(53.13010235415598 95 -34.5) translate(-2.5 -15)"><text x="97.5" y="-19.5" dominant-baseline="middle" text-anchor="middle"><tspan x="97.5" dy="-0.6em">Used</tspan><tspan x="97.5" dy="1.2em">By</tspan></text></g></g></g><g transform="rotate(0 550 205)"><g transform="translate(500 200)"><g><line x1="0" y1="5" x2="85" y2="5" stroke="black" stroke-width="1" ></line><polygon points="100,5 85,0 85,10"></polygon></g><g transform="translate(2.5 15) rotate(0 40 -24.5) translate(-2.5 -15)"><text x="42.5" y="-9.5" dominant-baseline="middle" text-anchor="middle"><tspan x="42.5" dy="0em">Creates</tspan></text></g></g></g><g transform="rotate(90 660 267.5)"><g transform="translate(632.5 259.75)"><g><line x1="0" y1="5" x2="40" y2="5" stroke="black" stroke-width="1" ></line><polygon points="55,5 40,0 40,10"></polygon></g><g transform="translate(2.5 15) rotate(-90 17.5 15.5) translate(-2.5 -15)"><text x="20" y="30.5" dominant-baseline="middle" text-anchor="middle"><tspan x="20" dy="-0.6em">Makes</tspan><tspan x="20" dy="1.2em">Up</tspan></text></g></g></g><g><text x="675" y="245" dominant-baseline="middle" text-anchor="middle" class="t1"><tspan x="675" dy="0em">m</tspan></text></g><g><text x="675" y="275" dominant-baseline="middle" text-anchor="middle" class="t1"><tspan x="675" dy="0em">1</tspan></text></g></svg>